<svg version="1.1" id="Layer_1" xmlns:x="ns_extend;" xmlns:i="ns_ai;" xmlns:graph="ns_graphs;" xmlns="http://www.w3.org/2000/svg" xmlns:xlink="http://www.w3.org/1999/xlink" x="0px" y="0px" viewBox="0 0 174 175" style="enable-background:new 0 0 174 175;" xml:space="preserve">
 <style type="text/css">
  .st0{fill:#FFFFFF;}
	.st1{fill:#FBA919;}
	.st2{opacity:0.1;}
	.st3{fill:#414042;}
 </style>
 <metadata>
  <sfw xmlns="ns_sfw;">
   <slices>
   </slices>
   <sliceSourceBounds bottomLeftOrigin="true" height="175" width="174" x="-415.9" y="-222">
   </sliceSourceBounds>
  </sfw>
 </metadata>
 <g>
  <path class="st0" d="M143.5,175h-113C13.7,175,0,161.2,0,144.3V30.7C0,13.8,13.7,0,30.5,0h113C160.3,0,174,13.8,174,30.7v113.6
		C174,161.2,160.2,175,143.5,175z">
  </path>
  <path class="st1" d="M151.7,97.1c-0.3-4.8-2.6-10.6-15.7-6.8c-6.8,1.9-13,2-15.7-0.6c-0.3-0.4-0.6-0.9-0.9-1.3
		c-1.1-2-0.5-5.2,2-9.5c1.8-3.1,3.9-3.9,6.4-3.9c2.1,0,4.5,0.4,7.4,0.4c9.1-0.2,12.7-6,12.2-11.2c-0.1-1.6-2.2-1.1-6.2-2
		c-3.9-1-7.1-0.4-8-6.1c-0.2-1.6-2.3-5.1-7.1-5.9c-3.2-0.5-10-3.7-15.1,0.3l-4.5-1.9c-3-0.7-2.8,1.3-5.5,2.4
		c-2.6,0.9-7.4-1.5-6.1,1.8c1.1,2.7,5.4,6.2,10.7,4.5c-3.2,15.9-18.4,19.6-31.1,19c-16.9-0.6-30-15-29.4-31.9c0.2-4.9-1.4-6.3-3-3.7
		c-0.4,0.7-1,1.9-1.3,3.4c-0.1,0.5-0.3,1.1-0.4,1.6c-1.4,7.1,0.3,21.2,12,30.4c0,0-3.9,3.2-5.2,9.2c-0.7,3.4-0.4,6.2-0.2,7.6
		c0.1,0.6,0.2,1.1,0.2,1.1c1.1,5.2-8.6,8.8-12.9,9.5c-0.3,0-0.6,0.1-1,0.1c-0.6,0-1.2,0-1.7,0c-0.7,0-1.4-0.1-1.9-0.2
		c-2.6-0.2-4.4,0.2-6.1,6.5c-2.3,9-9,7-10.6,9.5c-2.6,4.1,1.3,7.1,6.1,7.4c2.9,0.1,6.2-0.6,8.6-2.9c8.3-7.5,4.4-10.9,12.6-10.3
		c1.1,0.1,2.3,0.2,3.8,0.4c9.1,1.2,15.6,3.1,24.6-6.6c0,0,0.7-1.2,1.8-2c0.4-0.4,1-0.7,1.6-1c0.2-0.2,1.4-0.1,1.6-0.1
		c3.5,0.9,11.3,5.1,20.1,3.6c3.5-1.3,6.7-3.3,9.3-5.9c0,0,1.4-1.3,2.3-0.1c1.2,1.3,2.3,3.5,3.7,5c3.2,3.4,3.2,2,9.9-0.7
		c0.6-0.3,1.4-0.5,2.2-0.9c17.4-6.4,17-8.5,20.5-1.5c0.6,1.3,2.9,1.4,5,0.5C149.6,103.2,151.9,100.8,151.7,97.1z">
  </path>
  <g class="st2">
   <path class="st3" d="M97.3,100.3c-4.5,9.2-20.6,3.3-21,1.4c0.1-1.4,1.2-4.5,0.1-3.4c-1,1.1-4.4,5.1-5.6,6.7c0.4-0.4,1-0.7,1.6-1
			c0.2-0.2,1.4-0.1,1.6-0.1c3.5,0.9,11.3,5.1,20.1,3.6c3.5-1.3,6.7-3.3,9.3-5.9c0,0,1.4-1.3,2.3-0.1c0,0-3.7-6.2-5.2-8.8
			C99.6,91.5,99.5,95.9,97.3,100.3z">
   </path>
  </g>
  <g class="st2">
   <path class="st3" d="M118.9,71.9c-1.5-2.9-8.7-0.9-5.4,1.6c8.6,6.3,0.1,6.5,5.9,15c-1.1-2-0.5-5.2,2-9.5c1.8-3.1,3.9-3.9,6.4-3.9
			C127.8,75,120.4,74.8,118.9,71.9z">
   </path>
  </g>
 </g>
</svg>